<?xml version="1.0" encoding="utf-8"?>
<!-- Generator: Adobe Illustrator 27.0.1, SVG Export Plug-In . SVG Version: 6.00 Build 0)  -->
<svg version="1.1" id="Layer_1" xmlns="http://www.w3.org/2000/svg" xmlns:xlink="http://www.w3.org/1999/xlink" x="0px" y="0px"
	 viewBox="0 0 1200 1200" style="enable-background:new 0 0 1200 1200;" xml:space="preserve">
<style type="text/css">
	.st0{display:none;fill:#0D0E21;}
	.st1{clip-path:url(#SVGID_00000063597593741808315170000015767352846891581343_);}
	.st2{fill:#EA7224;}
	.st3{clip-path:url(#SVGID_00000053514031308783700410000001980068590786258837_);}
	.st4{fill:#0D0F21;}
	.st5{display:none;}
	.st6{display:inline;}
	.st7{clip-path:url(#SVGID_00000065768498654101665550000012558337454569335989_);}
	.st8{clip-path:url(#SVGID_00000158025416056339942200000006060603386863438467_);}
	.st9{fill:#FBFEFF;}
	.st10{display:inline;fill:#FBFEFF;}
</style>
<rect class="st0" width="1200" height="1200"/>
<g>
	<g>
		<defs>
			<rect id="SVGID_1_" x="236.6" y="490.9" width="769.2" height="36.3"/>
		</defs>
		<clipPath id="SVGID_00000132772762636776419420000000782851463754581685_">
			<use xlink:href="#SVGID_1_"  style="overflow:visible;"/>
		</clipPath>
		<g style="clip-path:url(#SVGID_00000132772762636776419420000000782851463754581685_);">
			<path class="st2" d="M274,520.6c27.9,1.8,55.6,3.4,83.4,4.9c2.4-1.1,5.9-1.8,11.2-2.1c142.9-7.3,303.1-11.4,634.9-28.7
				c-57.7-3.9-330.3,5.8-500.9,11.1c-81.9,2.6-163.9,6-245.7,11c-1.5,0-9.7,0.8-18.8,2C250.1,519.2,262.2,519.9,274,520.6z"/>
		</g>
	</g>
	<g>
		<defs>
			<rect id="SVGID_00000181806327185764938020000016527206507543057803_" x="91.9" y="375" width="1025.2" height="152.1"/>
		</defs>
		<clipPath id="SVGID_00000040571092924678469720000001197664496359039397_">
			<use xlink:href="#SVGID_00000181806327185764938020000016527206507543057803_"  style="overflow:visible;"/>
		</clipPath>
		<g style="clip-path:url(#SVGID_00000040571092924678469720000001197664496359039397_);">
			<path class="st4" d="M1115.3,524.2c-1.8-4.8-3.6-9.5-6.4-13.8c2.8-4.1,3.9-8.6,3.5-14.2c-0.2-1.6-0.4-3.1-0.8-4.6
				c-0.7-3.2-1.7-7.6-0.2-9.1l0.1-0.2c0.6-0.6,1-1.4,1.3-2.3c0.1-0.3,0.1-0.7,0.1-1v-0.4c-0.1-10-2.4-16.5-13.9-20.2
				c-7.2-2.4-15.7-2.4-23.3-2.4h-3.1c-11-0.1-22-0.7-32.4-1.6c-7.1-1.2-14.2-3.7-21.2-6c-2.3-0.8-4.5-1.6-6.7-2.3
				c-7-2.3-14-4.6-21-6.9c-11.8-3.9-23.9-7.9-36-11.8c-43.1-13.8-89.1-28.1-136.4-36.4c-85.6-16.7-168.8-20.2-247-10.3
				c-76.7,9.7-145.2,45.8-211.3,80.7l-12.8,6.8c-42.5,0.2-97.8,2.4-150.1,17.5c-31.5,9.1-63.9,21.7-96.4,37.4l-8.8,4.2l25.5-0.1
				l0.4-0.2c21.4-9.2,55.1-22.4,78.3-29.5c51.2-15.9,105.8-18.2,152.4-18.3c0.9,0,1.8-0.2,2.6-0.6l0.2-0.1c4.8-2.5,9.6-5,14.3-7.5
				c64.2-33.8,130.5-68.9,204.4-79c76.3-10.4,159-7.2,245.8,9.8c46.4,8.1,92.5,22.4,135.8,36.2c13.2,4.2,26.5,8.6,39.4,12.9
				l15.6,5.1l7.3,2.5c7.7,2.7,15.7,5.5,23.8,6.7l0.4,0.1l0.6,0.1c11,1,23,1.6,36.8,1.7c6.7,0.1,13.4,0.7,20,2c2.7,0.5,4,1.4,4.7,2.9
				c-15.3,0.1-30.3,3.3-43,6.5l-3.6,0.9c-9.6,2.4-20.5,5.1-29,10.2c-1.6,1-2.6,2.6-2.6,4.3c-0.1,0.6,0,1.2,0.1,1.8
				c3.9,18.9,24.5,20.3,31.3,20.7c16.2,1.1,31.3,0.8,44.9-0.9c2.6,3.5,4.3,7.3,5.5,10.4l0.6,1.4h11.2L1115.3,524.2z M1097.9,504.5
				c-10.7,1.3-21.9,1.3-33.3,1.2h-2.5c-10.1-0.1-22.5-0.1-27.1-8.7c5.6-2.6,12-4.2,18.2-5.9l4.9-1.3c16.3-4.5,29.7-6.7,41.9-6.9
				c-0.2,2.6,0.3,5.3,0.7,8.1C1101.7,497.8,1102.1,502.2,1097.9,504.5z"/>
		</g>
	</g>
	<path class="st4" d="M932.1,468.9c0,0-9.1,3.5-13.1,4.3c-6.7,1.2-29.5,3.8-29.5,3.8c23,2,120.4-4.1,116.2-4.1
		C982.7,472.9,950.1,470.4,932.1,468.9z"/>
	<path class="st4" d="M938.2,448.6c3.6-3.7,0.1-5.7-0.9-6.1c-95.2-31.9-198.5-49.3-299.5-47.7c-8.4,0.2-16.8,0.4-25.1,0.8
		c-62.3,3-123.1,22.3-178.8,50.7h-0.1c-1.1,0.5-2.2,1.1-3.2,1.6c-18.8,9.8-36.9,20.5-54.6,32.2c-4.7,3.4-3.7,6,1.5,6.6
		c5.8,0.5,14.9,0.3,22.1,0.3c9.1,0.1,45.4-0.5,82.9-1.3c32.6-0.7,66.1-1.4,83.6-2c59.5-1.8,118.8-3.7,178.3-4.6
		c32.2-0.5,64.5-1.2,96.7-2.9c19.8-1,41.8-0.9,60.8-7.1C915.6,464.9,928,458.9,938.2,448.6z M387,480.9c9.2-5.8,18.6-11.5,28.1-16.9
		c-1.9,5-1.9,10.5,1,16.4C406.5,480.7,396.6,481.3,387,480.9z M614.4,475.1c-34.9,1.2-69.8,2.7-104.7,3.5l-27.3,0.6l-21.5,0.4
		c5.2-9.5,5-17.1,2.3-22.6c-3.1-6.5-9.5-10.2-14-11c51.3-24.5,106.6-40.9,163.3-43.9c8.4-0.4,16.8-0.7,25.2-0.9
		C627,424.6,620.6,450.4,614.4,475.1z M648.6,475.3l-6.8,0.1c1.8-19,9.2-48.5,13.5-67C655.3,408.3,650.3,456.9,648.6,475.3z
		 M810.8,470.9c-41.5,1.5-83.1,1.9-124.7,2.4l-11.6,0.2c0.3-24,2.3-47.9,3.7-71.9c38.3,1.3,76.4,5.2,114.3,11.5
		c0.1,0.1,0.2,0.2,0.3,0.3c19.6,16.9,37.8,35.9,54.6,55.8C835.2,470,823,470.5,810.8,470.9z M865.7,467.9c-3.3,0.3-6.7,0.5-10.1,0.7
		c-15.6-18.8-32.5-36.9-50.7-53.4c42.4,7.7,84.1,18.4,125.1,31.8c-8.6,7.5-18.7,12.2-29.9,15.6C889,466.1,877.2,467,865.7,467.9z"/>
	<g>
		<g transform="translate(70.160554, 216.542271)">
			<g>
				<path class="st4" d="M94.3,378.2l-42.4,77.1L9.4,378.2H-9.4l51.3,93.2h18.8l51.3-93.2H94.3z"/>
			</g>
		</g>
	</g>
	<g>
		<g transform="translate(99.195867, 216.542271)">
			<g>
				<path class="st4" d="M164.4,369.6h16.3l15.4-15.9h-18.6L164.4,369.6z M214.1,392.4v-14.2h-98.2v93.2h98.2v-14.1h-82.4v-24.2
					h72.7V419h-72.7v-26.6H214.1z"/>
			</g>
		</g>
	</g>
	<g>
		<g transform="translate(129.538736, 216.542271)">
			<g>
				<path class="st4" d="M323.4,378.2v39.9H242v-39.9h-15.9v93.2H242v-39.9h81.4v39.9h15.9v-93.2H323.4z"/>
			</g>
		</g>
	</g>
	<g>
		<g transform="translate(165.212445, 216.542271)">
			<g>
				<path class="st4" d="M355.8,471.5h15.9v-93.2h-15.9V471.5z"/>
			</g>
		</g>
	</g>
	<g>
		<g transform="translate(179.898092, 216.542271)">
			<g>
				<path class="st4" d="M465.4,473c42.1,0,59-16.8,62.2-36.5h-17.3c-3.4,12.1-16.2,21-44.9,21c-33.7,0-46.9-12.7-46.9-31.2V423
					c0-18.5,13.2-31.2,46.9-31.2c25.8,0,43.2,9.2,45.1,20.1h17.3c-1.4-18.6-23.2-35.6-62.3-35.6c-48,0-63.1,22.2-63.1,46.8v3.3
					C402.3,450.8,417.4,473,465.4,473z"/>
			</g>
		</g>
	</g>
	<g>
		<g transform="translate(215.370644, 216.542271)">
			<g>
				<path class="st4" d="M589,473c48.8,0,57.7-23.3,57.7-46.9v-47.5h-17.3l-0.8,49.7c0,17.2-10.4,28.1-39.6,28.1
					c-28.3,0-39.6-11.7-39.6-28.1v-49.7h-17.3l-0.8,49.7C531.4,450.8,541,473,589,473z"/>
			</g>
		</g>
	</g>
	<g>
		<g transform="translate(248.83154, 216.542271)">
			<g>
				<path class="st4" d="M675.3,378.2h-15.8v93.2H753v-14.9h-77.7V378.2z"/>
			</g>
		</g>
	</g>
	<g>
		<g transform="translate(277.430988, 216.542271)">
			<g>
				<path class="st4" d="M861.8,392.4v-14.2h-98.2v93.2h98.2v-14.1h-82.4v-24.2h72.7V419h-72.7v-26.6H861.8z"/>
			</g>
		</g>
	</g>
	<g>
		<g transform="translate(117.406614, 245.900317)">
			<g>
				<path class="st2" d="M202.5,525.3h-28.8v52.8h28.8c24.9,0,33.5-9,33.5-24.5v-3.9C236,534.3,227.4,525.3,202.5,525.3z
					 M231.3,553.7c0,13.4-7.3,20.1-28.8,20.1h-24.2v-44h24.2c21.5,0,28.8,6.7,28.8,20.1V553.7z"/>
			</g>
		</g>
	</g>
	<g>
		<g transform="translate(135.586072, 245.900317)">
			<g>
				<path class="st2" d="M232.4,536.4h3.5l2.8-15.5h-4.4L232.4,536.4z"/>
			</g>
		</g>
	</g>
	<g>
		<g transform="translate(139.328478, 245.900317)">
			<g>
				<path class="st2" d="M283,579.1c23.2,0,33.5-9.9,33.5-25.7v-3.9c0-15.9-10.3-25-33.5-25s-33.5,9.5-33.5,25.4v3.9
					C249.5,569.5,259.8,579.1,283,579.1z M283,574.6c-19.8,0-28.8-7.2-28.8-20.9v-3.9c0-13.7,9-20.9,28.8-20.9
					c19.8,0,28.8,7.2,28.8,20.9v3.9C311.8,567.4,302.8,574.6,283,574.6z"/>
			</g>
		</g>
	</g>
	<g>
		<g transform="translate(157.697895, 245.900317)">
			<g>
				<path class="st2" d="M349.8,579.1c20.8,0,31.7-7.7,33.2-20.7H378c-1.5,10.6-10.9,16.3-28.3,16.3c-19.8,0-28.8-7.2-28.8-20.9
					v-3.9c0-13.7,9-20.9,28.8-20.9c17,0,27.5,5.4,28.3,15.5h4.9c-0.8-12.5-12.9-19.9-33.3-19.9c-23.2,0-33.5,9.5-33.5,25.4v3.9
					C316.2,569.5,326.5,579.1,349.8,579.1z"/>
			</g>
		</g>
	</g>
	<g>
		<g transform="translate(176.02932, 245.900317)">
			<g>
				<path class="st2" d="M416.4,579.1c20.8,0,31.7-7.7,33.2-20.7h-4.9c-1.5,10.6-10.9,16.3-28.3,16.3c-19.8,0-28.8-7.2-28.8-20.9
					v-3.9c0-13.7,9-20.9,28.8-20.9c17,0,27.5,5.4,28.3,15.5h4.9c-0.8-12.5-12.9-19.9-33.3-19.9c-23.2,0-33.5,9.5-33.5,25.4v3.9
					C382.9,569.5,393.2,579.1,416.4,579.1z"/>
			</g>
		</g>
	</g>
	<g>
		<g transform="translate(194.360746, 245.900317)">
			<g>
				<path class="st2" d="M501.2,578.2h5.2l-29.1-52.8h-5.4l-29.1,52.8h5.2l5.7-10.4h41.7L501.2,578.2z M456.2,563.4l18.5-33.5
					l18.4,33.5H456.2z"/>
			</g>
		</g>
	</g>
	<g>
		<g transform="translate(209.101896, 245.900317)">
			<g>
				<path class="st2" d="M557.7,542.8h4.6c0-13-9.8-18.2-28.7-18.2c-22.5,0-30.5,5.6-30.5,12.9v1.9c0,9,7.4,11.8,28.5,14
					c20.8,2.1,25.5,4.6,25.5,10.3v1.6c0,6-9.1,9.3-25.4,9.3c-16.4,0-24.1-3.8-24.1-14.8H503c0,13,8,19.2,28.7,19.2
					c22.1,0,30-5.9,30-13.2v-1.9c0-9.7-7.4-12.4-29.6-14.7c-19.7-2-24.5-4.6-24.5-9.6V538c0-5.9,8.9-9.1,25.9-9.1
					C549.8,529,557.7,532.7,557.7,542.8z"/>
			</g>
		</g>
	</g>
	<g>
		<g transform="translate(225.780658, 245.900317)">
			<g>
				<path class="st2" d="M567.5,578.2h4.6v-52.8h-4.6V578.2z"/>
			</g>
		</g>
	</g>
	<g>
		<g transform="translate(232.334483, 245.900317)">
			<g>
				<path class="st2" d="M621,579.1c23.2,0,33.5-9.9,33.5-25.7v-3.9c0-15.9-10.3-25-33.5-25s-33.5,9.5-33.5,25.4v3.9
					C587.5,569.5,597.8,579.1,621,579.1z M621,574.6c-19.8,0-28.8-7.2-28.8-20.9v-3.9c0-13.7,9-20.9,28.8-20.9s28.8,7.2,28.8,20.9
					v3.9C649.8,567.4,640.8,574.6,621,574.6z"/>
			</g>
		</g>
	</g>
	<g>
		<g transform="translate(250.703897, 245.900317)">
			<g>
				<path class="st2" d="M710.8,525.3v48.1l-46.6-48.1h-6.2v52.8h4.6v-48.1l46.6,48.1h6.2v-52.8H710.8z"/>
			</g>
		</g>
	</g>
</g>
<g class="st5">
	<g class="st6">
		<defs>
			<rect id="SVGID_00000050650291938586355570000000148489769826076580_" x="-1332.8" y="605.7" width="650.1" height="30.7"/>
		</defs>
		<clipPath id="SVGID_00000157270145801192798970000003454171547047786402_">
			<use xlink:href="#SVGID_00000050650291938586355570000000148489769826076580_"  style="overflow:visible;"/>
		</clipPath>
		<g style="clip-path:url(#SVGID_00000157270145801192798970000003454171547047786402_);">
			<path class="st2" d="M-1301.9,630.8c23.5,1.5,47,2.9,70.5,4.1c2-0.9,5-1.5,9.4-1.8c120.8-6.2,256.1-9.6,536.6-24.2
				c-48.7-3.3-279.2,4.9-423.4,9.4c-69.2,2.2-138.5,5.1-207.7,9.3c-1.3,0-8.2,0.7-15.9,1.7C-1322.1,629.7-1312,630.2-1301.9,630.8z"
				/>
		</g>
	</g>
	<g class="st6">
		<defs>
			<rect id="SVGID_00000183965257413662176770000016796940893464337848_" x="-1455.9" y="507.8" width="866.5" height="128.6"/>
		</defs>
		<clipPath id="SVGID_00000041977503986173055250000000733607531343137665_">
			<use xlink:href="#SVGID_00000183965257413662176770000016796940893464337848_"  style="overflow:visible;"/>
		</clipPath>
		<g style="clip-path:url(#SVGID_00000041977503986173055250000000733607531343137665_);">
			<path class="st9" d="M-590.9,633.9c-1.5-4.1-3.1-8-5.4-11.7c2.4-3.5,3.3-7.3,3-12c-0.1-1.3-0.4-2.6-0.7-3.9
				c-0.6-2.7-1.5-6.4-0.2-7.7l0.1-0.2c0.5-0.5,0.9-1.2,1.1-1.9c0.1-0.3,0.1-0.6,0.1-0.8v-0.4c-0.1-8.4-2-13.9-11.7-17.1
				c-6.1-2-13.3-2-19.7-2.1h-2.6c-9.3-0.1-18.5-0.6-27.4-1.3c-6-1-12-3.1-17.9-5.1c-1.9-0.7-3.8-1.3-5.7-1.9
				c-5.9-1.9-11.8-3.9-17.8-5.8c-9.9-3.3-20.2-6.7-30.4-9.9c-36.4-11.7-75.3-23.7-115.3-30.7c-72.4-14.1-142.6-17.1-208.7-8.7
				c-64.9,8.2-122.7,38.7-178.6,68.2l-10.8,5.7c-35.9,0.2-82.7,2-126.8,14.8c-26.6,7.7-54,18.3-81.5,31.6l-7.4,3.5l21.5,0l0.3-0.1
				c18.1-7.8,46.6-18.9,66.2-25c43.3-13.4,89.4-15.3,128.8-15.5c0.8,0,1.5-0.2,2.2-0.5l0.1-0.1c4.1-2.1,8.1-4.2,12.1-6.4
				c54.2-28.6,110.3-58.2,172.8-66.7c64.5-8.8,134.4-6.1,207.8,8.3c39.2,6.9,78.2,18.9,114.8,30.6c11.1,3.6,22.4,7.3,33.3,10.9
				l13.2,4.3l6.2,2.1c6.5,2.2,13.3,4.6,20.1,5.7l0.3,0.1l0.5,0.1c9.3,0.9,19.4,1.3,31.1,1.4c5.7,0.1,11.3,0.6,16.9,1.7
				c2.2,0.4,3.4,1.2,4,2.4c-13,0-25.6,2.8-36.3,5.5l-3,0.8c-8.1,2-17.3,4.3-24.5,8.6c-1.4,0.9-2.2,2.2-2.2,3.6c-0.1,0.5,0,1,0.1,1.5
				c3.3,15.9,20.7,17.1,26.5,17.5c13.7,0.9,26.5,0.7,37.9-0.8c2.2,2.9,3.6,6.2,4.7,8.8l0.5,1.2h9.5L-590.9,633.9z M-605.6,617.2
				c-9.1,1.1-18.5,1.1-28.1,1h-2.1c-8.5,0-19-0.1-22.9-7.3c4.7-2.2,10.1-3.6,15.3-5l4.1-1.1c13.8-3.8,25.2-5.7,35.4-5.8
				c-0.1,2.2,0.3,4.5,0.6,6.8C-602.4,611.6-602.1,615.2-605.6,617.2z"/>
		</g>
	</g>
	<path class="st10" d="M-745.7,587.1c0,0-7.7,2.9-11,3.6c-5.6,1.1-25,3.3-25,3.3c19.4,1.7,101.8-3.5,98.2-3.5
		C-703,590.5-730.6,588.4-745.7,587.1z"/>
	<path class="st10" d="M-740.6,569.9c3.1-3.1,0.1-4.8-0.7-5.1c-80.5-26.9-167.8-41.7-253.1-40.3c-7.1,0.1-14.2,0.3-21.2,0.7
		c-52.7,2.6-104.1,18.8-151.1,42.9h-0.1c-0.9,0.4-1.8,0.9-2.7,1.4c-15.8,8.3-31.2,17.3-46.1,27.2c-3.9,2.9-3.1,5,1.2,5.6
		c4.9,0.4,12.6,0.2,18.7,0.3c7.7,0.1,38.3-0.4,70-1.1c27.6-0.6,55.9-1.2,70.6-1.7c50.3-1.5,100.4-3.1,150.7-3.9
		c27.2-0.4,54.5-1,81.7-2.5c16.7-0.9,35.3-0.8,51.4-6C-759.7,583.7-749.2,578.6-740.6,569.9z M-1206.5,597.3
		c7.8-4.9,15.7-9.7,23.7-14.3c-1.6,4.2-1.6,8.9,0.8,13.9C-1190,597.1-1198.3,597.6-1206.5,597.3z M-1014.2,592.4
		c-29.5,1-59,2.3-88.5,3l-23.1,0.5l-18.2,0.4c4.4-8,4.2-14.4,2-19.1c-2.6-5.5-8-8.6-11.8-9.3c43.4-20.7,90.1-34.6,138-37.1
		c7.1-0.4,14.2-0.6,21.3-0.7C-1003.6,549.6-1009,571.4-1014.2,592.4z M-985.4,592.5l-5.7,0c1.5-16,7.8-41,11.4-56.6
		C-979.7,535.9-983.9,576.9-985.4,592.5z M-848.2,588.8c-35.1,1.2-70.3,1.6-105.4,2l-9.8,0.2c0.2-20.3,2-40.5,3.2-60.7
		c32.4,1.1,64.6,4.4,96.6,9.8c0.1,0.1,0.1,0.1,0.2,0.2c16.6,14.3,32,30.4,46.2,47.2C-827.6,588-837.9,588.4-848.2,588.8z
		 M-801.8,586.3c-2.8,0.2-5.7,0.4-8.5,0.6c-13.2-15.9-27.5-31.2-42.9-45.1c35.9,6.5,71.1,15.5,105.8,26.9
		c-7.3,6.4-15.8,10.3-25.3,13.2C-782.2,584.8-792.2,585.5-801.8,586.3z"/>
	<g class="st6">
		<g transform="translate(70.160554, 216.542285)">
			<g>
				<path class="st9" d="M-1448.3,477l-35.9,65.1L-1520,477h-15.9l43.3,78.8h15.9l43.3-78.8H-1448.3z"/>
			</g>
		</g>
	</g>
	<g class="st6">
		<g transform="translate(99.195867, 216.542285)">
			<g>
				<path class="st9" d="M-1393.6,469.6h13.8l13-13.4h-15.8L-1393.6,469.6z M-1351.5,488.9v-12h-83v78.8h83v-11.9h-69.6v-20.5h61.5
					v-12h-61.5v-22.4H-1351.5z"/>
			</g>
		</g>
	</g>
	<g class="st6">
		<g transform="translate(129.538736, 216.542285)">
			<g>
				<path class="st9" d="M-1263.8,477v33.8h-68.8V477h-13.4v78.8h13.4V522h68.8v33.7h13.4V477H-1263.8z"/>
			</g>
		</g>
	</g>
	<g class="st6">
		<g transform="translate(165.212445, 216.542285)">
			<g>
				<path class="st9" d="M-1242,555.8h13.4V477h-13.4V555.8z"/>
			</g>
		</g>
	</g>
	<g class="st6">
		<g transform="translate(179.898092, 216.542285)">
			<g>
				<path class="st9" d="M-1151.6,557.1c35.6,0,49.9-14.2,52.5-30.9h-14.6c-2.9,10.2-13.7,17.7-38,17.7c-28.5,0-39.7-10.8-39.7-26.4
					v-2.8c0-15.6,11.2-26.4,39.7-26.4c21.8,0,36.5,7.8,38.1,17h14.6c-1.2-15.8-19.6-30.1-52.7-30.1c-40.6,0-53.3,18.8-53.3,39.5v2.8
					C-1204.9,538.3-1192.2,557.1-1151.6,557.1z"/>
			</g>
		</g>
	</g>
	<g class="st6">
		<g transform="translate(215.370644, 216.542285)">
			<g>
				<path class="st9" d="M-1052.6,557.1c41.2,0,48.7-19.7,48.7-39.7v-40.2h-14.6l-0.7,42c0,14.6-8.8,23.8-33.5,23.8
					c-23.9,0-33.5-9.9-33.5-23.8v-42h-14.6l-0.7,42C-1101.4,538.3-1093.2,557.1-1052.6,557.1z"/>
			</g>
		</g>
	</g>
	<g class="st6">
		<g transform="translate(248.83154, 216.542285)">
			<g>
				<path class="st9" d="M-984.9,477h-13.4v78.8h79.1v-12.6h-65.7V477z"/>
			</g>
		</g>
	</g>
	<g class="st6">
		<g transform="translate(277.430988, 216.542285)">
			<g>
				<path class="st9" d="M-831.7,488.9v-12h-83v78.8h83v-11.9h-69.6v-20.5h61.5v-12h-61.5v-22.4H-831.7z"/>
			</g>
		</g>
	</g>
	<g class="st6">
		<g transform="translate(117.406614, 245.900331)">
			<g>
				<path class="st2" d="M-1364.2,596.7h-24.3v44.6h24.3c21.1,0,28.3-7.6,28.3-20.7v-3.3C-1335.8,604.3-1343.1,596.7-1364.2,596.7z
					 M-1339.8,620.7c0,11.3-6.2,17-24.3,17h-20.5v-37.2h20.5c18.2,0,24.3,5.7,24.3,17V620.7z"/>
			</g>
		</g>
	</g>
	<g class="st6">
		<g transform="translate(135.586072, 245.900331)">
			<g>
				<path class="st2" d="M-1341.7,606.1h3l2.4-13.1h-3.7L-1341.7,606.1z"/>
			</g>
		</g>
	</g>
	<g class="st6">
		<g transform="translate(139.328478, 245.900331)">
			<g>
				<path class="st2" d="M-1299.5,642.1c19.6,0,28.3-8.3,28.3-21.7v-3.3c0-13.4-8.7-21.1-28.3-21.1c-19.6,0-28.3,8-28.3,21.4v3.3
					C-1327.8,634.1-1319.1,642.1-1299.5,642.1z M-1299.5,638.4c-16.7,0-24.3-6.1-24.3-17.7v-3.3c0-11.6,7.6-17.7,24.3-17.7
					c16.7,0,24.3,6.1,24.3,17.7v3.3C-1275.2,632.3-1282.7,638.4-1299.5,638.4z"/>
			</g>
		</g>
	</g>
	<g class="st6">
		<g transform="translate(157.697895, 245.900331)">
			<g>
				<path class="st2" d="M-1245.9,642.1c17.6,0,26.8-6.5,28-17.5h-4.2c-1.3,9-9.2,13.8-23.9,13.8c-16.7,0-24.3-6.1-24.3-17.7v-3.3
					c0-11.6,7.6-17.7,24.3-17.7c14.4,0,23.3,4.5,24,13.1h4.2c-0.7-10.6-10.9-16.8-28.1-16.8c-19.6,0-28.3,8-28.3,21.4v3.3
					C-1274.3,634.1-1265.5,642.1-1245.9,642.1z"/>
			</g>
		</g>
	</g>
	<g class="st6">
		<g transform="translate(176.02932, 245.900331)">
			<g>
				<path class="st2" d="M-1192.4,642.1c17.6,0,26.8-6.5,28-17.5h-4.2c-1.3,9-9.2,13.8-23.9,13.8c-16.7,0-24.3-6.1-24.3-17.7v-3.3
					c0-11.6,7.6-17.7,24.3-17.7c14.4,0,23.3,4.5,24,13.1h4.2c-0.7-10.6-10.9-16.8-28.1-16.8c-19.6,0-28.3,8-28.3,21.4v3.3
					C-1220.8,634.1-1212.1,642.1-1192.4,642.1z"/>
			</g>
		</g>
	</g>
	<g class="st6">
		<g transform="translate(194.360746, 245.900331)">
			<g>
				<path class="st2" d="M-1123.6,641.4h4.4l-24.6-44.6h-4.5l-24.6,44.6h4.4l4.8-8.8h35.2L-1123.6,641.4z M-1161.7,628.9l15.6-28.3
					l15.5,28.3H-1161.7z"/>
			</g>
		</g>
	</g>
	<g class="st6">
		<g transform="translate(209.101896, 245.900331)">
			<g>
				<path class="st2" d="M-1078.1,611.5h3.9c0-11-8.3-15.4-24.2-15.4c-19,0-25.7,4.8-25.7,10.9v1.6c0,7.6,6.2,10,24.1,11.8
					c17.5,1.8,21.6,3.9,21.6,8.7v1.3c0,5.1-7.7,7.9-21.5,7.9c-13.8,0-20.4-3.2-20.4-12.5h-3.9c0,11,6.8,16.2,24.3,16.2
					c18.7,0,25.4-5,25.4-11.2v-1.6c0-8.2-6.3-10.5-25-12.4c-16.7-1.7-20.7-3.9-20.7-8.1v-1.3c0-5,7.5-7.7,21.9-7.7
					C-1084.8,599.8-1078.1,602.9-1078.1,611.5z"/>
			</g>
		</g>
	</g>
	<g class="st6">
		<g transform="translate(225.780658, 245.900331)">
			<g>
				<path class="st2" d="M-1072.4,641.4h3.9v-44.6h-3.9V641.4z"/>
			</g>
		</g>
	</g>
	<g class="st6">
		<g transform="translate(232.334483, 245.900331)">
			<g>
				<path class="st2" d="M-1028.2,642.1c19.6,0,28.3-8.3,28.3-21.7v-3.3c0-13.4-8.7-21.1-28.3-21.1c-19.6,0-28.3,8-28.3,21.4v3.3
					C-1056.6,634.1-1047.9,642.1-1028.2,642.1z M-1028.2,638.4c-16.7,0-24.3-6.1-24.3-17.7v-3.3c0-11.6,7.6-17.7,24.3-17.7
					c16.7,0,24.3,6.1,24.3,17.7v3.3C-1003.9,632.3-1011.5,638.4-1028.2,638.4z"/>
			</g>
		</g>
	</g>
	<g class="st6">
		<g transform="translate(250.703897, 245.900331)">
			<g>
				<path class="st2" d="M-955.2,596.7v40.6l-39.4-40.6h-5.2v44.6h3.9v-40.6l39.4,40.6h5.2v-44.6H-955.2z"/>
			</g>
		</g>
	</g>
</g>
</svg>
