<svg xmlns="http://www.w3.org/2000/svg" width="95" height="35.581" viewBox="0 0 95 35.581"><path d="M94.823,26.85a23.86,23.86,0,0,0,.164-4.28c.059-1.5-.578-1.011-1.155-1.418-.125-2.114-.013-5.665-.243-7.838-.269-2.541-1-2.856-3.827-2.849l-33.349.066a2.154,2.154,0,0,1-1.313-.263c-.6-.394-.965-5.226-1.6-8.035C53.176.742,53.176,0,51.508,0H36.58a10.334,10.334,0,0,0-6.3,2.58L21.769,9.486A115.478,115.478,0,0,0,3.578,12.473a2.573,2.573,0,0,0-2.265,2.961l.033,6.013a3.517,3.517,0,0,0-.768.144c-.5.171-.525.341-.558.827-.026.394-.02.873-.013,1.116.02.965.118,3.709.814,4.228a2.554,2.554,0,0,0,1.379.473l1.543.026c1.149-.23,1.372-.6,1.576-1.9a9.421,9.421,0,0,1,9.421-7.943,9.559,9.559,0,0,1,9.493,8.521c.151,1.372.88,1.385,1.891,1.4l38.4.079c.814,0,.978-.453,1.037-1.208a9.545,9.545,0,0,1,19.018-.151c.118,1.274.1,1.4,1.247,1.4l3.092.007c1.326,0,5.547-.2,5.9-1.615ZM46.3,9.65c.433-3.6.637-6.2.807-7.2.079-.44.158-.722.7-.716h2.271c.177,0,.282.42.315,1.064l.354,6.5c.092,1.576-.079,1.4-.893,1.4H47.444c-1.247,0-1.287.072-1.149-1.05ZM29.207,10.7c-.505,0,.263-.309.3-.952.066-1.09-1.93-1.175-3.164-1.1l5.167-4.641a6.975,6.975,0,0,1,2.107-1.365,8.275,8.275,0,0,1,3.525-.913h7.4c.492,0,.473.2.414.611-.223,1.471-.637,5.39-.972,7.221-.158.906-.355,1.136-1.28,1.136H29.214Zm-14.469,9.65a7.615,7.615,0,1,1-7.615,7.615,7.615,7.615,0,0,1,7.615-7.615Zm60.337,0a7.615,7.615,0,1,1-7.615,7.615,7.615,7.615,0,0,1,7.615-7.615Z" transform="translate(-0.001)" fill="#2f343e" fill-rule="evenodd"/></svg>