<svg xmlns="http://www.w3.org/2000/svg" width="95" height="36.745" viewBox="0 0 95 36.745"><path d="M76.595,22.529a7.108,7.108,0,1,1-7.108,7.108,7.108,7.108,0,0,1,7.108-7.108ZM86.746,32.721c1.615-.136,3.664-.292,5.211-.59a4.6,4.6,0,0,0,2.138-.787c1.045-1.086.923-4.465.9-6.2,0-.421-.957-.421-.984-.862A42.148,42.148,0,0,0,93,16.191a23.487,23.487,0,0,0-2.307-5.035C90,9.731,88.334,5.144,85.959,2.518a1.876,1.876,0,0,1-.366-1.371c.041-1.154-.136-1-1.221-1.086C83.15-.054,81.087.027,78.318.041L45.693.231c-1.527.007-2.979.149-4.3.244-7.308.536-16.069,6.7-22.3,10.45-3.481,1.221-8.828,3.237-13.5,4.954a4.634,4.634,0,0,0-3.033,2.8A17.29,17.29,0,0,0,1.6,21.762a14.278,14.278,0,0,1-.719,2.117c-.523.048-.543-.1-.706.238a4.216,4.216,0,0,0-.115,1.425,15.642,15.642,0,0,0,.231,4.282,3.632,3.632,0,0,0,1.059,2.124,2.289,2.289,0,0,0,1.391.59l2.239.081c1.506-.149,1.581.115,1.323-1.7a9.235,9.235,0,1,1,18.009,1.323c-.516,1.751-.258,1.473,1.181,1.615l40.6-.048c1.479-.142,2.138.231,1.588-1.778a9.235,9.235,0,1,1,18.009-.746c-.176.991.088,1.52,1.072,1.439ZM49.065,11.862c.57-5.211.706-7.553,1.14-8.821a.879.879,0,0,1,.76-.394l12.608-.088c.808,0,1.289.02,1.323,1.1l.217,7.369c.027.93.149,1.391-.909,1.432-5.049.19-8.754.353-13.8.421-1.418.02-1.5.407-1.344-1.018ZM28.538,13.626a9.346,9.346,0,0,0,.333-1.791c.068-1.378-2.178-1.486-3.576-1.384C29.637,6.84,37.1,2.708,42.666,2.694H47.09c.55-.014.577.258.461.76-.38,1.71-.733,5.734-1.059,8.109-.156,1.14-.407,1.411-1.445,1.425-4.133.041-16.557.862-16.51.638ZM67.42,11.353l-.339-7.213a3.272,3.272,0,0,1,.143-.984c.048-.2.407-.4.719-.407,2.809-.034,1.7-.027,4.513-.068.753-.007,5.619.957,7.179,2.328a27.225,27.225,0,0,1,4.736,5.157c.421.814.238,1.4-.814,1.432-5.021.19-9.656.713-14.691.78-1.411.014-1.384.4-1.452-1.018ZM15.435,22.529a7.1,7.1,0,1,1-7.1,7.1,7.1,7.1,0,0,1,7.1-7.1Z" transform="translate(-0.013 0)" fill="#2f343e" fill-rule="evenodd"/></svg>