<svg xmlns="http://www.w3.org/2000/svg" width="95" height="32.982" viewBox="0 0 95 32.982"><path d="M91.876,28.615a5.248,5.248,0,0,0,2.307-.754c1.121-1.047.784-4.314.762-5.984,0-.41-1.033-.41-1.062-.835-.146-2.578-1.26-7.324-1.538-9.968a4.169,4.169,0,0,0-2.2-3.281c-1.978-1.23-7.676-4.578-9.836-5.486-1.421-.6-1.077-.74-2.607-.959-7.6-1.1-24.228-2.38-31.677-.015a74.762,74.762,0,0,0-16.992,8.2c-9.77,1.7-17.761,3.135-22.514,4.409a5.645,5.645,0,0,0-3.977,3.076Q1.722,18.6,1.05,20.243c-.842.073-1.047.85-1.033,1.9a15.408,15.408,0,0,0,.33,4.482,2.726,2.726,0,0,0,2.7,1.934l2.388.073c1.157-.22,1.509-.146,1.414-1.7-.037-.527-.044-1.077-.044-1.633a9.968,9.968,0,0,1,19.936,0c0,.769,0,1.516-.051,2.241-.176,2.454-.937,2.2,1.421,2.322l40.063-.051c1.707-.205,2.168,0,1.926-2.329a21.263,21.263,0,0,1-.081-2.183,9.968,9.968,0,0,1,19.929,0c0,.5,0,.974-.015,1.45-.066,1.89-.476,2.27,1.941,1.853ZM59.958,10.378c.615-5.024.688-6.482,1.157-7.7a1.171,1.171,0,0,1,.857-.593c3.618.168,7.646.11,11.147.923,1.245.344,3.794,3.245,4.431,4.116.249.337,2.08,2.468,1.787,2.9a1.054,1.054,0,0,1-.952.513c-5.456.19-11.535.762-16.985.828-1.523.022-1.611.4-1.443-.981ZM39.26,12.15a8.305,8.305,0,0,0,.366-1.736c.073-1.333-2.842-1.428-4.351-1.333a48.2,48.2,0,0,1,11.638-5.83c3.2-1.077,7.515-1.1,10.942-1.172.6-.007.579.242.505.732-.242,1.582-.828,4.988-1.179,7.28-.168,1.1-.432,1.37-1.56,1.377-4.46.037-16.413.894-16.362.681Zm40.722,5.493a7.668,7.668,0,1,1-7.668,7.668,7.668,7.668,0,0,1,7.668-7.668Zm-63.207,0a7.668,7.668,0,1,1-7.668,7.668,7.668,7.668,0,0,1,7.668-7.668Z" transform="translate(-0.009 0.002)" fill="#2f343e" fill-rule="evenodd"/></svg>