<svg xmlns="http://www.w3.org/2000/svg" width="34.617" height="34.617" viewBox="0 0 34.617 34.617"><path d="M29.227,13.694l-3.219-3.219A1.343,1.343,0,0,0,24.192,8.66L20.974,5.441a.232.232,0,0,0-.325,0l-.413.413a.232.232,0,0,0,0,.325l3.293,3.293a1.351,1.351,0,0,0,.044.9L10.919,23.026a1.882,1.882,0,0,0-1.89.059l-2.85-2.85a.232.232,0,0,0-.325,0l-.413.413a.232.232,0,0,0,0,.325l2.894,2.894a1.89,1.89,0,0,0,.369,2.1,1.855,1.855,0,0,0,2.1.369l2.894,2.894a.232.232,0,0,0,.325,0l.413-.413a.232.232,0,0,0,0-.325l-2.85-2.85a1.847,1.847,0,0,0,.059-1.89L24.31,11.1a1.347,1.347,0,0,0,.9.044L28.5,14.433a.232.232,0,0,0,.325,0l.413-.413a.248.248,0,0,0-.015-.325ZM22.361,2.045,20.619.3a.954.954,0,0,0-1.344,0L15.112,4.466a.954.954,0,0,0,0,1.344l1.742,1.742a.954.954,0,0,0,1.344,0l4.164-4.164a.954.954,0,0,0,0-1.344ZM7.567,16.839,5.825,15.1a.954.954,0,0,0-1.344,0L.3,19.261A.954.954,0,0,0,.3,20.6l1.742,1.742a.954.954,0,0,0,1.344,0l4.164-4.164A.94.94,0,0,0,7.567,16.839Zm26.8-2.791-1.742-1.742a.954.954,0,0,0-1.344,0L27.116,16.47a.954.954,0,0,0,0,1.344l1.742,1.742a.954.954,0,0,0,1.344,0l4.164-4.164a.953.953,0,0,0,0-1.344ZM19.571,28.858l-1.742-1.742a.954.954,0,0,0-1.344,0L12.321,31.28a.954.954,0,0,0,0,1.344l1.728,1.742a.954.954,0,0,0,1.344,0L19.556,30.2a.94.94,0,0,0,.015-1.344Z" transform="translate(-0.026 -0.026)"/></svg>