<svg xmlns="http://www.w3.org/2000/svg" width="30" height="28.608" viewBox="0 0 30 28.608"><path d="M26.779-.5a3.044,3.044,0,0,0-.855,5.907v6.9a.531.531,0,0,1-.529.529H20.528A.531.531,0,0,1,20,12.313V5.41a3.043,3.043,0,1,0-2.036,0v6.9a.531.531,0,0,1-.529.529H12.567a.531.531,0,0,1-.529-.529V5.41A3.058,3.058,0,1,0,9.984,5.4v6.9a.531.531,0,0,1-.529.529H4.589A.531.531,0,0,1,4.06,12.3V5.41A3.044,3.044,0,0,0,6.079,2.439,3.042,3.042,0,1,0,0,2.536,3.041,3.041,0,0,0,2.015,5.4v8.454a.429.429,0,0,0,.009.106,1.023,1.023,0,0,0,1.014.917H9.455a.531.531,0,0,1,.529.529v6.735a3.041,3.041,0,1,0,2.045,0V15.407a.531.531,0,0,1,.529-.529h4.866a.531.531,0,0,1,.529.529v6.735a3.041,3.041,0,1,0,2.045,0V15.407a.531.531,0,0,1,.529-.529h6.418a1.023,1.023,0,0,0,1.014-.917c0-.035.009-.071.009-.106V5.41A3.043,3.043,0,0,0,26.779-.5ZM3.037,3.541a1.005,1.005,0,1,1,.975-1,1.005,1.005,0,0,1-.975,1Zm7.97,22.472A1,1,0,0,1,10,25.008v-.141a.1.1,0,0,1,.009-.044V24.8c0-.018.009-.035.009-.053s.009-.035.018-.053,0-.009.009-.018.009-.026.018-.035,0-.009.009-.018.009-.026.018-.035a.027.027,0,0,1,.009-.018l.026-.053a1,1,0,0,1,.882-.52,1.023,1.023,0,0,1,.908.573.009.009,0,0,0,.009.009c.009.009.009.026.018.035s0,.009.009.018.009.026.018.035,0,.009.009.018L12,24.8v.018a.382.382,0,0,1,.009.044V25A1.006,1.006,0,0,1,11.007,26.013Zm0-22.472a1.005,1.005,0,1,1,.975-1A1.005,1.005,0,0,1,11.007,3.541Zm7.97,22.472a1.005,1.005,0,1,1,.975-1,1.005,1.005,0,0,1-.975,1Zm0-22.472a1.005,1.005,0,1,1,1.005-1.005A1.005,1.005,0,0,1,18.977,3.541Zm7.97,0a1.005,1.005,0,1,1,1-1.005A1.005,1.005,0,0,1,26.946,3.541Z" transform="translate(0.004 0.554)"/></svg>