<?xml version="1.0" encoding="utf-8"?>
<!-- Generator: Adobe Illustrator 27.0.1, SVG Export Plug-In . SVG Version: 6.00 Build 0)  -->
<svg version="1.1" id="Layer_1" xmlns="http://www.w3.org/2000/svg" xmlns:xlink="http://www.w3.org/1999/xlink" x="0px" y="0px"
	 viewBox="0 0 1200 1200" style="enable-background:new 0 0 1200 1200;" xml:space="preserve">
<style type="text/css">
	.st0{display:none;fill:#0D0E21;}
	.st1{display:none;}
	.st2{display:inline;}
	.st3{clip-path:url(#SVGID_00000000209159471851805820000016778696092145449641_);}
	.st4{fill:#EA7224;}
	.st5{clip-path:url(#SVGID_00000135677100095146825350000013751798677040421553_);}
	.st6{fill:#0D0F21;}
	.st7{display:inline;fill:#0D0F21;}
	.st8{clip-path:url(#SVGID_00000026881735313589642570000001443700056888207781_);}
	.st9{clip-path:url(#SVGID_00000008868166451726519630000016464533201218541711_);}
	.st10{fill:#FBFEFF;}
</style>
<rect class="st0" width="1200" height="1200"/>
<g class="st1">
	<g class="st2">
		<defs>
			<rect id="SVGID_1_" x="-1216.7" y="33.3" width="221.3" height="10.4"/>
		</defs>
		<clipPath id="SVGID_00000062156188363192092060000000492299384934017203_">
			<use xlink:href="#SVGID_1_"  style="overflow:visible;"/>
		</clipPath>
		<g style="clip-path:url(#SVGID_00000062156188363192092060000000492299384934017203_);">
			<path class="st4" d="M-1206,41.9c8,0.5,16,1,24,1.4c0.7-0.3,1.7-0.5,3.2-0.6c41.1-2.1,87.2-3.3,182.7-8.2
				c-16.6-1.1-95,1.7-144.1,3.2c-23.6,0.7-47.2,1.7-70.7,3.2c-0.4,0-2.8,0.2-5.4,0.6C-1212.8,41.5-1209.4,41.7-1206,41.9z"/>
		</g>
	</g>
	<g class="st2">
		<defs>
			<rect id="SVGID_00000175292463600974201180000014461659636436165293_" x="-1258.4" width="295" height="43.8"/>
		</defs>
		<clipPath id="SVGID_00000139252604249874911180000012556591120628819343_">
			<use xlink:href="#SVGID_00000175292463600974201180000014461659636436165293_"  style="overflow:visible;"/>
		</clipPath>
		<g style="clip-path:url(#SVGID_00000139252604249874911180000012556591120628819343_);">
			<path class="st6" d="M-963.9,42.9c-0.5-1.4-1-2.7-1.8-4c0.8-1.2,1.1-2.5,1-4.1c0-0.5-0.1-0.9-0.2-1.3c-0.2-0.9-0.5-2.2-0.1-2.6
				l0-0.1c0.2-0.2,0.3-0.4,0.4-0.7c0-0.1,0-0.2,0-0.3v-0.1c0-2.9-0.7-4.7-4-5.8c-2.1-0.7-4.5-0.7-6.7-0.7h-0.9
				c-3.2,0-6.3-0.2-9.3-0.5c-2-0.3-4.1-1.1-6.1-1.7c-0.7-0.2-1.3-0.5-1.9-0.7c-2-0.7-4-1.3-6-2c-3.4-1.1-6.9-2.3-10.4-3.4
				c-12.4-4-25.7-8.1-39.2-10.5c-24.6-4.8-48.6-5.8-71.1-3c-22.1,2.8-41.8,13.2-60.8,23.2l-3.7,1.9c-12.2,0.1-28.2,0.7-43.2,5
				c-9.1,2.6-18.4,6.2-27.8,10.8l-2.5,1.2l7.3,0l0.1,0c6.2-2.7,15.9-6.4,22.5-8.5c14.7-4.6,30.4-5.2,43.9-5.3c0.3,0,0.5-0.1,0.7-0.2
				l0,0c1.4-0.7,2.8-1.4,4.1-2.2c18.5-9.7,37.6-19.8,58.8-22.7c21.9-3,45.7-2.1,70.7,2.8c13.3,2.3,26.6,6.4,39.1,10.4
				c3.8,1.2,7.6,2.5,11.3,3.7l4.5,1.5l2.1,0.7c2.2,0.8,4.5,1.6,6.8,1.9l0.1,0l0.2,0c3.2,0.3,6.6,0.4,10.6,0.5c1.9,0,3.9,0.2,5.8,0.6
				c0.8,0.1,1.2,0.4,1.4,0.8c-4.4,0-8.7,1-12.4,1.9l-1,0.3c-2.8,0.7-5.9,1.5-8.3,2.9c-0.5,0.3-0.8,0.8-0.8,1.2c0,0.2,0,0.3,0,0.5
				c1.1,5.4,7.1,5.8,9,6c4.7,0.3,9,0.2,12.9-0.3c0.7,1,1.2,2.1,1.6,3l0.2,0.4h3.2L-963.9,42.9z M-968.9,37.3
				c-3.1,0.4-6.3,0.4-9.6,0.3h-0.7c-2.9,0-6.5,0-7.8-2.5c1.6-0.7,3.4-1.2,5.2-1.7l1.4-0.4c4.7-1.3,8.6-1.9,12.1-2
				c0,0.7,0.1,1.5,0.2,2.3C-967.8,35.3-967.7,36.6-968.9,37.3z"/>
		</g>
	</g>
	<path class="st7" d="M-1016.6,27c0,0-2.6,1-3.8,1.2c-1.9,0.4-8.5,1.1-8.5,1.1c6.6,0.6,34.7-1.2,33.4-1.2
		C-1002.1,28.2-1011.5,27.4-1016.6,27z"/>
	<path class="st7" d="M-1014.9,21.2c1-1.1,0-1.7-0.3-1.8c-27.4-9.2-57.1-14.2-86.2-13.7c-2.4,0-4.8,0.1-7.2,0.2
		c-17.9,0.9-35.4,6.4-51.4,14.6h0c-0.3,0.2-0.6,0.3-0.9,0.5c-5.4,2.8-10.6,5.9-15.7,9.3c-1.3,1-1.1,1.7,0.4,1.9
		c1.7,0.1,4.3,0.1,6.4,0.1c2.6,0,13.1-0.1,23.8-0.4c9.4-0.2,19-0.4,24-0.6c17.1-0.5,34.2-1.1,51.3-1.3c9.3-0.2,18.6-0.3,27.8-0.8
		c5.7-0.3,12-0.3,17.5-2C-1021.4,25.8-1017.8,24.1-1014.9,21.2z M-1173.5,30.5c2.6-1.7,5.3-3.3,8.1-4.9c-0.6,1.4-0.6,3,0.3,4.7
		C-1167.9,30.4-1170.7,30.6-1173.5,30.5z M-1108,28.8c-10,0.3-20.1,0.8-30.1,1l-7.9,0.2l-6.2,0.1c1.5-2.7,1.4-4.9,0.7-6.5
		c-0.9-1.9-2.7-2.9-4-3.2c14.8-7.1,30.7-11.8,47-12.6c2.4-0.1,4.8-0.2,7.3-0.3C-1104.4,14.2-1106.3,21.7-1108,28.8z M-1098.2,28.8
		l-1.9,0c0.5-5.5,2.6-13.9,3.9-19.3C-1096.3,9.6-1097.7,23.5-1098.2,28.8z M-1051.5,27.6c-12,0.4-23.9,0.5-35.9,0.7l-3.3,0.1
		c0.1-6.9,0.7-13.8,1.1-20.7c11,0.4,22,1.5,32.9,3.3c0,0,0,0,0.1,0.1c5.7,4.9,10.9,10.3,15.7,16.1
		C-1044.5,27.3-1048,27.5-1051.5,27.6z M-1035.7,26.7c-1,0.1-1.9,0.1-2.9,0.2c-4.5-5.4-9.4-10.6-14.6-15.4c12.2,2.2,24.2,5.3,36,9.2
		c-2.5,2.2-5.4,3.5-8.6,4.5C-1029,26.2-1032.4,26.4-1035.7,26.7z"/>
	<g class="st2">
		<g transform="translate(70.160554, 216.542271)">
			<g>
				<path class="st6" d="M-1307.7-153.3l-12.2,22.2l-12.2-22.2h-5.4l14.8,26.8h5.4l14.8-26.8H-1307.7z"/>
			</g>
		</g>
	</g>
	<g class="st2">
		<g transform="translate(99.195867, 216.542271)">
			<g>
				<path class="st6" d="M-1308.2-155.8h4.7l4.4-4.6h-5.4L-1308.2-155.8z M-1293.9-149.2v-4.1h-28.3v26.8h28.3v-4.1h-23.7v-7h20.9
					v-4.1h-20.9v-7.6H-1293.9z"/>
			</g>
		</g>
	</g>
	<g class="st2">
		<g transform="translate(129.538736, 216.542271)">
			<g>
				<path class="st6" d="M-1284-153.3v11.5h-23.4v-11.5h-4.6v26.8h4.6V-138h23.4v11.5h4.6v-26.8H-1284z"/>
			</g>
		</g>
	</g>
	<g class="st2">
		<g transform="translate(165.212445, 216.542271)">
			<g>
				<path class="st6" d="M-1300.1-126.5h4.6v-26.8h-4.6V-126.5z"/>
			</g>
		</g>
	</g>
	<g class="st2">
		<g transform="translate(179.898092, 216.542271)">
			<g>
				<path class="st6" d="M-1279.1-126c12.1,0,17-4.8,17.9-10.5h-5c-1,3.5-4.7,6-12.9,6c-9.7,0-13.5-3.7-13.5-9v-0.9
					c0-5.3,3.8-9,13.5-9c7.4,0,12.4,2.6,13,5.8h5c-0.4-5.4-6.7-10.2-17.9-10.2c-13.8,0-18.2,6.4-18.2,13.5v0.9
					C-1297.2-132.4-1292.9-126-1279.1-126z"/>
			</g>
		</g>
	</g>
	<g class="st2">
		<g transform="translate(215.370644, 216.542271)">
			<g>
				<path class="st6" d="M-1268.7-126c14,0,16.6-6.7,16.6-13.5v-13.7h-5l-0.2,14.3c0,5-3,8.1-11.4,8.1c-8.1,0-11.4-3.4-11.4-8.1
					v-14.3h-5l-0.2,14.3C-1285.3-132.4-1282.6-126-1268.7-126z"/>
			</g>
		</g>
	</g>
	<g class="st2">
		<g transform="translate(248.83154, 216.542271)">
			<g>
				<path class="st6" d="M-1267.7-153.3h-4.6v26.8h26.9v-4.3h-22.4V-153.3z"/>
			</g>
		</g>
	</g>
	<g class="st2">
		<g transform="translate(277.430988, 216.542271)">
			<g>
				<path class="st6" d="M-1234.5-149.2v-4.1h-28.3v26.8h28.3v-4.1h-23.7v-7h20.9v-4.1h-20.9v-7.6H-1234.5z"/>
			</g>
		</g>
	</g>
	<g class="st2">
		<g transform="translate(117.406614, 245.900317)">
			<g>
				<path class="st4" d="M-1310.2-131.9h-8.3v15.2h8.3c7.2,0,9.7-2.6,9.7-7v-1.1C-1300.5-129.3-1303-131.9-1310.2-131.9z
					 M-1301.9-123.7c0,3.8-2.1,5.8-8.3,5.8h-7v-12.7h7c6.2,0,8.3,1.9,8.3,5.8V-123.7z"/>
			</g>
		</g>
	</g>
	<g class="st2">
		<g transform="translate(135.586072, 245.900317)">
			<g>
				<path class="st4" d="M-1314.5-128.7h1l0.8-4.5h-1.3L-1314.5-128.7z"/>
			</g>
		</g>
	</g>
	<g class="st2">
		<g transform="translate(139.328478, 245.900317)">
			<g>
				<path class="st4" d="M-1302.6-116.4c6.7,0,9.7-2.8,9.7-7.4v-1.1c0-4.6-3-7.2-9.7-7.2c-6.7,0-9.7,2.7-9.7,7.3v1.1
					C-1312.3-119.2-1309.3-116.4-1302.6-116.4z M-1302.6-117.7c-5.7,0-8.3-2.1-8.3-6v-1.1c0-4,2.6-6,8.3-6c5.7,0,8.3,2.1,8.3,6v1.1
					C-1294.3-119.8-1296.9-117.7-1302.6-117.7z"/>
			</g>
		</g>
	</g>
	<g class="st2">
		<g transform="translate(157.697895, 245.900317)">
			<g>
				<path class="st4" d="M-1296.5-116.4c6,0,9.1-2.2,9.5-6h-1.4c-0.4,3.1-3.1,4.7-8.1,4.7c-5.7,0-8.3-2.1-8.3-6v-1.1
					c0-4,2.6-6,8.3-6c4.9,0,7.9,1.5,8.2,4.5h1.4c-0.2-3.6-3.7-5.7-9.6-5.7c-6.7,0-9.7,2.7-9.7,7.3v1.1
					C-1306.2-119.2-1303.2-116.4-1296.5-116.4z"/>
			</g>
		</g>
	</g>
	<g class="st2">
		<g transform="translate(176.02932, 245.900317)">
			<g>
				<path class="st4" d="M-1290.4-116.4c6,0,9.1-2.2,9.5-6h-1.4c-0.4,3.1-3.1,4.7-8.1,4.7c-5.7,0-8.3-2.1-8.3-6v-1.1
					c0-4,2.6-6,8.3-6c4.9,0,7.9,1.5,8.2,4.5h1.4c-0.2-3.6-3.7-5.7-9.6-5.7c-6.7,0-9.7,2.7-9.7,7.3v1.1
					C-1300-119.2-1297.1-116.4-1290.4-116.4z"/>
			</g>
		</g>
	</g>
	<g class="st2">
		<g transform="translate(194.360746, 245.900317)">
			<g>
				<path class="st4" d="M-1279.1-116.7h1.5l-8.4-15.2h-1.5l-8.4,15.2h1.5l1.6-3h12L-1279.1-116.7z M-1292-121l5.3-9.6l5.3,9.6
					H-1292z"/>
			</g>
		</g>
	</g>
	<g class="st2">
		<g transform="translate(209.101896, 245.900317)">
			<g>
				<path class="st4" d="M-1273.3-126.9h1.3c0-3.8-2.8-5.2-8.3-5.2c-6.5,0-8.8,1.6-8.8,3.7v0.6c0,2.6,2.1,3.4,8.2,4
					c6,0.6,7.3,1.3,7.3,3v0.5c0,1.7-2.6,2.7-7.3,2.7c-4.7,0-6.9-1.1-6.9-4.3h-1.3c0,3.8,2.3,5.5,8.3,5.5c6.4,0,8.6-1.7,8.6-3.8v-0.6
					c0-2.8-2.1-3.6-8.5-4.2c-5.7-0.6-7-1.3-7-2.8v-0.5c0-1.7,2.6-2.6,7.4-2.6C-1275.6-130.9-1273.3-129.8-1273.3-126.9z"/>
			</g>
		</g>
	</g>
	<g class="st2">
		<g transform="translate(225.780658, 245.900317)">
			<g>
				<path class="st4" d="M-1282.3-116.7h1.3v-15.2h-1.3V-116.7z"/>
			</g>
		</g>
	</g>
	<g class="st2">
		<g transform="translate(232.334483, 245.900317)">
			<g>
				<path class="st4" d="M-1271.6-116.4c6.7,0,9.7-2.8,9.7-7.4v-1.1c0-4.6-3-7.2-9.7-7.2s-9.7,2.7-9.7,7.3v1.1
					C-1281.3-119.2-1278.3-116.4-1271.6-116.4z M-1271.6-117.7c-5.7,0-8.3-2.1-8.3-6v-1.1c0-4,2.6-6,8.3-6s8.3,2.1,8.3,6v1.1
					C-1263.3-119.8-1265.9-117.7-1271.6-117.7z"/>
			</g>
		</g>
	</g>
	<g class="st2">
		<g transform="translate(250.703897, 245.900317)">
			<g>
				<path class="st4" d="M-1258.9-131.9v13.8l-13.4-13.8h-1.8v15.2h1.3v-13.8l13.4,13.8h1.8v-15.2H-1258.9z"/>
			</g>
		</g>
	</g>
</g>
<g>
	<g>
		<defs>
			<rect id="SVGID_00000123419018372796153880000016169799226643287185_" x="277.2" y="507.8" width="650.1" height="30.7"/>
		</defs>
		<clipPath id="SVGID_00000129197955812114086360000002551736645187053490_">
			<use xlink:href="#SVGID_00000123419018372796153880000016169799226643287185_"  style="overflow:visible;"/>
		</clipPath>
		<g style="clip-path:url(#SVGID_00000129197955812114086360000002551736645187053490_);">
			<path class="st4" d="M308.1,532.9c23.5,1.5,47,2.9,70.5,4.1c2-0.9,5-1.5,9.4-1.8c120.8-6.2,256.1-9.6,536.6-24.2
				c-48.7-3.3-279.2,4.9-423.4,9.4c-69.2,2.2-138.5,5.1-207.7,9.3c-1.3,0-8.2,0.7-15.9,1.7C287.9,531.7,298,532.3,308.1,532.9z"/>
		</g>
	</g>
	<g>
		<defs>
			<rect id="SVGID_00000003092623484271800200000008993748840572936853_" x="154.1" y="409.9" width="866.5" height="128.6"/>
		</defs>
		<clipPath id="SVGID_00000129187861931447567360000005756361608843932824_">
			<use xlink:href="#SVGID_00000003092623484271800200000008993748840572936853_"  style="overflow:visible;"/>
		</clipPath>
		<g style="clip-path:url(#SVGID_00000129187861931447567360000005756361608843932824_);">
			<path class="st10" d="M1019.1,535.9c-1.5-4.1-3.1-8-5.4-11.7c2.4-3.5,3.3-7.3,3-12c-0.1-1.3-0.4-2.6-0.7-3.9
				c-0.6-2.7-1.5-6.4-0.2-7.7l0.1-0.2c0.5-0.5,0.9-1.2,1.1-1.9c0.1-0.3,0.1-0.6,0.1-0.8v-0.4c-0.1-8.4-2-13.9-11.7-17.1
				c-6.1-2-13.3-2-19.7-2.1h-2.6c-9.3-0.1-18.5-0.6-27.4-1.3c-6-1-12-3.1-17.9-5.1c-1.9-0.7-3.8-1.3-5.7-1.9
				c-5.9-1.9-11.8-3.9-17.8-5.8c-9.9-3.3-20.2-6.7-30.4-9.9c-36.4-11.7-75.3-23.7-115.3-30.7c-72.4-14.1-142.6-17.1-208.7-8.7
				c-64.9,8.2-122.7,38.7-178.6,68.2l-10.8,5.7c-35.9,0.2-82.7,2-126.8,14.8c-26.6,7.7-54,18.3-81.5,31.6l-7.4,3.5l21.5,0l0.3-0.1
				c18.1-7.8,46.6-18.9,66.2-25c43.3-13.4,89.4-15.3,128.8-15.5c0.8,0,1.5-0.2,2.2-0.5l0.1-0.1c4.1-2.1,8.1-4.2,12.1-6.4
				c54.2-28.6,110.3-58.2,172.8-66.7c64.5-8.8,134.4-6.1,207.8,8.3c39.2,6.9,78.2,18.9,114.8,30.6c11.1,3.6,22.4,7.3,33.3,10.9
				l13.2,4.3l6.2,2.1c6.5,2.2,13.3,4.6,20.1,5.7l0.3,0.1l0.5,0.1c9.3,0.9,19.4,1.3,31.1,1.4c5.7,0.1,11.3,0.6,16.9,1.7
				c2.2,0.4,3.4,1.2,4,2.4c-13,0-25.6,2.8-36.3,5.5l-3,0.8c-8.1,2-17.3,4.3-24.5,8.6c-1.4,0.9-2.2,2.2-2.2,3.6c-0.1,0.5,0,1,0.1,1.5
				c3.3,15.9,20.7,17.1,26.5,17.5c13.7,0.9,26.5,0.7,37.9-0.8c2.2,2.9,3.6,6.2,4.7,8.8l0.5,1.2h9.5L1019.1,535.9z M1004.4,519.3
				c-9.1,1.1-18.5,1.1-28.1,1h-2.1c-8.5,0-19-0.1-22.9-7.3c4.7-2.2,10.1-3.6,15.3-5l4.1-1.1c13.8-3.8,25.2-5.7,35.4-5.8
				c-0.1,2.2,0.3,4.5,0.6,6.8C1007.6,513.6,1007.9,517.3,1004.4,519.3z"/>
		</g>
	</g>
	<path class="st10" d="M864.3,489.2c0,0-7.7,2.9-11,3.6c-5.6,1.1-25,3.3-25,3.3c19.4,1.7,101.8-3.5,98.2-3.5
		C907,492.6,879.4,490.5,864.3,489.2z"/>
	<path class="st10" d="M869.4,472c3.1-3.1,0.1-4.8-0.7-5.1c-80.5-26.9-167.8-41.7-253.1-40.3c-7.1,0.1-14.2,0.3-21.2,0.7
		c-52.7,2.6-104.1,18.8-151.1,42.9h-0.1c-0.9,0.4-1.8,0.9-2.7,1.4c-15.8,8.3-31.2,17.3-46.1,27.2c-3.9,2.9-3.1,5,1.2,5.6
		c4.9,0.4,12.6,0.2,18.7,0.3c7.7,0.1,38.3-0.4,70-1.1c27.6-0.6,55.9-1.2,70.6-1.7c50.3-1.5,100.4-3.1,150.7-3.9
		c27.2-0.4,54.5-1,81.7-2.5c16.7-0.9,35.3-0.8,51.4-6C850.4,485.8,860.8,480.7,869.4,472z M403.5,499.3c7.8-4.9,15.7-9.7,23.7-14.3
		c-1.6,4.2-1.6,8.9,0.8,13.9C420,499.2,411.7,499.7,403.5,499.3z M595.8,494.5c-29.5,1-59,2.3-88.5,3l-23.1,0.5l-18.2,0.4
		c4.4-8,4.2-14.4,2-19.1c-2.6-5.5-8-8.6-11.8-9.3c43.4-20.7,90.1-34.6,138-37.1c7.1-0.4,14.2-0.6,21.3-0.7
		C606.4,451.7,601,473.5,595.8,494.5z M624.6,494.6l-5.7,0c1.5-16,7.8-41,11.4-56.6C630.3,438,626.1,479,624.6,494.6z M761.8,490.9
		c-35.1,1.2-70.3,1.6-105.4,2l-9.8,0.2c0.2-20.3,2-40.5,3.2-60.7c32.4,1.1,64.6,4.4,96.6,9.8c0.1,0.1,0.1,0.1,0.2,0.2
		c16.6,14.3,32,30.4,46.2,47.2C782.4,490.1,772.1,490.5,761.8,490.9z M808.2,488.4c-2.8,0.2-5.7,0.4-8.5,0.6
		c-13.2-15.9-27.5-31.2-42.9-45.1c35.9,6.5,71.1,15.5,105.8,26.9c-7.3,6.4-15.8,10.3-25.3,13.2C827.8,486.9,817.8,487.6,808.2,488.4
		z"/>
	<g>
		<g transform="translate(70.160554, 216.542285)">
			<g>
				<path class="st10" d="M161.7,379.1l-35.9,65.1L90,379.1H74.1l43.3,78.8h15.9l43.3-78.8H161.7z"/>
			</g>
		</g>
	</g>
	<g>
		<g transform="translate(99.195867, 216.542285)">
			<g>
				<path class="st10" d="M216.5,371.7h13.8l13-13.4h-15.8L216.5,371.7z M258.5,391v-12h-83v78.8h83v-11.9h-69.6v-20.5h61.5v-12
					h-61.5V391H258.5z"/>
			</g>
		</g>
	</g>
	<g>
		<g transform="translate(129.538736, 216.542285)">
			<g>
				<path class="st10" d="M346.2,379.1v33.8h-68.8v-33.8H264v78.8h13.4v-33.7h68.8v33.7h13.4v-78.8H346.2z"/>
			</g>
		</g>
	</g>
	<g>
		<g transform="translate(165.212445, 216.542285)">
			<g>
				<path class="st10" d="M368,457.9h13.4v-78.8H368V457.9z"/>
			</g>
		</g>
	</g>
	<g>
		<g transform="translate(179.898092, 216.542285)">
			<g>
				<path class="st10" d="M458.4,459.2c35.6,0,49.9-14.2,52.5-30.9h-14.6c-2.9,10.2-13.7,17.7-38,17.7c-28.5,0-39.7-10.8-39.7-26.4
					v-2.8c0-15.6,11.2-26.4,39.7-26.4c21.8,0,36.5,7.8,38.1,17H511c-1.2-15.8-19.6-30.1-52.7-30.1c-40.6,0-53.3,18.8-53.3,39.5v2.8
					C405.1,440.4,417.8,459.2,458.4,459.2z"/>
			</g>
		</g>
	</g>
	<g>
		<g transform="translate(215.370644, 216.542285)">
			<g>
				<path class="st10" d="M557.4,459.2c41.2,0,48.7-19.7,48.7-39.7v-40.2h-14.6l-0.7,42c0,14.6-8.8,23.8-33.5,23.8
					c-23.9,0-33.5-9.9-33.5-23.8v-42h-14.6l-0.7,42C508.6,440.4,516.8,459.2,557.4,459.2z"/>
			</g>
		</g>
	</g>
	<g>
		<g transform="translate(248.83154, 216.542285)">
			<g>
				<path class="st10" d="M625.1,379.1h-13.4v78.8h79.1v-12.6h-65.7V379.1z"/>
			</g>
		</g>
	</g>
	<g>
		<g transform="translate(277.430988, 216.542285)">
			<g>
				<path class="st10" d="M778.3,391v-12h-83v78.8h83v-11.9h-69.6v-20.5h61.5v-12h-61.5V391H778.3z"/>
			</g>
		</g>
	</g>
	<g>
		<g transform="translate(117.406614, 245.900331)">
			<g>
				<path class="st4" d="M245.9,498.8h-24.3v44.6h24.3c21.1,0,28.3-7.6,28.3-20.7v-3.3C274.2,506.4,266.9,498.8,245.9,498.8z
					 M270.2,522.8c0,11.3-6.2,17-24.3,17h-20.5v-37.2h20.5c18.2,0,24.3,5.7,24.3,17V522.8z"/>
			</g>
		</g>
	</g>
	<g>
		<g transform="translate(135.586072, 245.900331)">
			<g>
				<path class="st4" d="M268.3,508.2h3l2.4-13.1h-3.7L268.3,508.2z"/>
			</g>
		</g>
	</g>
	<g>
		<g transform="translate(139.328478, 245.900331)">
			<g>
				<path class="st4" d="M310.5,544.2c19.6,0,28.3-8.3,28.3-21.7v-3.3c0-13.4-8.7-21.1-28.3-21.1s-28.3,8-28.3,21.4v3.3
					C282.2,536.2,290.9,544.2,310.5,544.2z M310.5,540.5c-16.7,0-24.3-6.1-24.3-17.7v-3.3c0-11.6,7.6-17.7,24.3-17.7
					s24.3,6.1,24.3,17.7v3.3C334.9,534.4,327.3,540.5,310.5,540.5z"/>
			</g>
		</g>
	</g>
	<g>
		<g transform="translate(157.697895, 245.900331)">
			<g>
				<path class="st4" d="M364.1,544.2c17.6,0,26.8-6.5,28-17.5H388c-1.3,9-9.2,13.8-23.9,13.8c-16.7,0-24.3-6.1-24.3-17.7v-3.3
					c0-11.6,7.6-17.7,24.3-17.7c14.4,0,23.3,4.5,24,13.1h4.2c-0.7-10.6-10.9-16.8-28.1-16.8c-19.6,0-28.3,8-28.3,21.4v3.3
					C335.8,536.2,344.5,544.2,364.1,544.2z"/>
			</g>
		</g>
	</g>
	<g>
		<g transform="translate(176.02932, 245.900331)">
			<g>
				<path class="st4" d="M417.6,544.2c17.6,0,26.8-6.5,28-17.5h-4.2c-1.3,9-9.2,13.8-23.9,13.8c-16.7,0-24.3-6.1-24.3-17.7v-3.3
					c0-11.6,7.6-17.7,24.3-17.7c14.4,0,23.3,4.5,24,13.1h4.2c-0.7-10.6-10.9-16.8-28.1-16.8c-19.6,0-28.3,8-28.3,21.4v3.3
					C389.2,536.2,397.9,544.2,417.6,544.2z"/>
			</g>
		</g>
	</g>
	<g>
		<g transform="translate(194.360746, 245.900331)">
			<g>
				<path class="st4" d="M486.4,543.5h4.4l-24.6-44.6h-4.5l-24.6,44.6h4.4l4.8-8.8h35.2L486.4,543.5z M448.3,531l15.6-28.3
					l15.5,28.3H448.3z"/>
			</g>
		</g>
	</g>
	<g>
		<g transform="translate(209.101896, 245.900331)">
			<g>
				<path class="st4" d="M531.9,513.6h3.9c0-11-8.3-15.4-24.2-15.4c-19,0-25.7,4.8-25.7,10.9v1.6c0,7.6,6.2,10,24.1,11.8
					c17.5,1.8,21.6,3.9,21.6,8.7v1.3c0,5.1-7.7,7.9-21.5,7.9c-13.8,0-20.4-3.2-20.4-12.5h-3.9c0,11,6.8,16.2,24.3,16.2
					c18.7,0,25.4-5,25.4-11.2v-1.6c0-8.2-6.3-10.5-25-12.4c-16.7-1.7-20.7-3.9-20.7-8.1v-1.3c0-5,7.5-7.7,21.9-7.7
					C525.2,501.9,531.9,505,531.9,513.6z"/>
			</g>
		</g>
	</g>
	<g>
		<g transform="translate(225.780658, 245.900331)">
			<g>
				<path class="st4" d="M537.6,543.5h3.9v-44.6h-3.9V543.5z"/>
			</g>
		</g>
	</g>
	<g>
		<g transform="translate(232.334483, 245.900331)">
			<g>
				<path class="st4" d="M581.8,544.2c19.6,0,28.3-8.3,28.3-21.7v-3.3c0-13.4-8.7-21.1-28.3-21.1c-19.6,0-28.3,8-28.3,21.4v3.3
					C553.4,536.2,562.1,544.2,581.8,544.2z M581.8,540.5c-16.7,0-24.3-6.1-24.3-17.7v-3.3c0-11.6,7.6-17.7,24.3-17.7
					c16.7,0,24.3,6.1,24.3,17.7v3.3C606.1,534.4,598.5,540.5,581.8,540.5z"/>
			</g>
		</g>
	</g>
	<g>
		<g transform="translate(250.703897, 245.900331)">
			<g>
				<path class="st4" d="M654.8,498.8v40.6l-39.4-40.6h-5.2v44.6h3.9v-40.6l39.4,40.6h5.2v-44.6H654.8z"/>
			</g>
		</g>
	</g>
</g>
</svg>
