<svg xmlns="http://www.w3.org/2000/svg" width="33.116" height="42.248" viewBox="0 0 33.116 42.248"><g transform="translate(0.094 -0.023)"><path d="M55.705,39.494a1.616,1.616,0,0,0-.717-.609V35.371a.379.379,0,0,0-.376-.376l-4.159.018a.379.379,0,0,0-.376.376l.018,7.3a.2.2,0,0,1-.2.2.2.2,0,0,0-.2.2v.161a.2.2,0,0,0,.2.2L55.2,43.42a.2.2,0,0,0,.2-.2v-.161a.2.2,0,0,0-.2-.2.2.2,0,0,1-.2-.2l-.018-3.245a.853.853,0,0,1,.394.95,3.849,3.849,0,0,0,.018.9c.054.538.125,1.183.627,1.434a.9.9,0,0,0,.807-.018c.251-.161.412-.5.376-1.721A9.206,9.206,0,0,0,57,38.92a3.559,3.559,0,0,0-.161-.484,1.623,1.623,0,0,1-.09-.3,4.458,4.458,0,0,1-.054-.645,1.914,1.914,0,0,0-.233-1,1.7,1.7,0,0,0-.269-.359,2.412,2.412,0,0,0-.717-.556.241.241,0,0,0-.215.43,1.988,1.988,0,0,1,.574.448,1.5,1.5,0,0,1,.215.287,1.7,1.7,0,0,1,.179.789,3.853,3.853,0,0,0,.072.717,1,1,0,0,0,.125.394,3.736,3.736,0,0,1,.143.43,7.567,7.567,0,0,1,.2,1.918c.018,1.129-.143,1.291-.161,1.309a.418.418,0,0,1-.359,0c-.269-.125-.323-.645-.359-1.058a6.817,6.817,0,0,1-.018-.825,1.471,1.471,0,0,0-.161-.914Zm-1.828-1.362H51.206a.368.368,0,0,1-.376-.376V36.232a.368.368,0,0,1,.376-.376h2.671a.368.368,0,0,1,.376.376v1.524A.368.368,0,0,1,53.877,38.132ZM58.663,55.7H55.9a.2.2,0,0,1-.2-.2v-.9a.2.2,0,0,1,.2-.2H58.34a.2.2,0,0,0,.2-.2v-.789a.2.2,0,0,0-.2-.2H55.9a.2.2,0,0,1-.2-.2v-.609a.2.2,0,0,1,.2-.2h2.653a.2.2,0,0,0,.2-.2v-.807a.2.2,0,0,0-.2-.2l-4.051.018a.2.2,0,0,0-.2.2l.018,5.521a.2.2,0,0,0,.2.2l4.159-.018a.2.2,0,0,0,.2-.2V55.95c0-.161-.09-.251-.215-.251ZM54.63,26.5h.986a.2.2,0,0,0,.2-.2V24.293a.2.2,0,0,1,.2-.2h1.954a.2.2,0,0,0,.2-.2v-.807a.2.2,0,0,0-.2-.2H55.992a.2.2,0,0,1-.2-.2V22a.2.2,0,0,1,.2-.2h2.33a.2.2,0,0,0,.2-.2V20.8a.2.2,0,0,0-.2-.2l-3.729.018a.2.2,0,0,0-.2.2l.018,5.521a.237.237,0,0,0,.215.161Zm17.46,9.483L52.03,30.029,70.064,40.677a2.572,2.572,0,1,0,2.026-4.7Zm-.556,3.442a.87.87,0,1,1,.9-.843A.876.876,0,0,1,71.534,39.422Z" transform="translate(-40.868 -16.889)"/><path d="M1.68,10.792A33.271,33.271,0,0,1,7.326.485,1.237,1.237,0,0,1,9.262,2.026c-.233.287-.448.574-.663.86l1.649.825a1.207,1.207,0,0,1,.538,1.649,1.224,1.224,0,0,1-1.093.681,1.2,1.2,0,0,1-.556-.125L7.183,4.93a31.128,31.128,0,0,0-4.75,15.148l2.958-.036A1.228,1.228,0,0,1,5.408,22.5l-2.994.036v.215A31.023,31.023,0,0,0,6.824,37.61L8.85,36.534A1.235,1.235,0,1,1,10,38.721l-1.811.968c.143.215.3.412.448.609a1.239,1.239,0,0,1-.986,1.972,1.264,1.264,0,0,1-1-.484A33.455,33.455,0,0,1-.077,22.839,34.218,34.218,0,0,1,1.68,10.792Z" transform="translate(0 0)"/></g></svg>