<svg xmlns="http://www.w3.org/2000/svg" width="95" height="30.652" viewBox="0 0 95 30.652"><path d="M76.586,16.415a7.117,7.117,0,1,1-7.1,7.117,7.111,7.111,0,0,1,7.1-7.117ZM69.977,3.8,69.5,10c1.4-.068,2.741-.136,3.983-.177a1,1,0,0,0,.889-.476,10.329,10.329,0,0,0,.855-1.795c.122-.34.095-.5-.2-.9C74.639,6.11,72.033,4.751,69.977,3.8Zm-1.527,6.254.584-6.682a12.085,12.085,0,0,0-1.391-.544,18.29,18.29,0,0,0-4.906-.8l-5.428-.068a.92.92,0,0,0-.76.36c-.434,1.135-.543,2.685-1.106,7.341-.156,1.285-.068.938,1.343.918,3.481-.041,7.715-.306,11.664-.523ZM87.585,26.679q2.191-.14,4.363-.469a4.809,4.809,0,0,0,2.137-.707c1.045-.972.923-4,.9-5.554,0-.374-.957-.374-.984-.768-.136-2.393-.305-5.044-.563-7.5-.312-2.957-6.358-3.059-10.063-4.235-2.633-.836-4.8-2.631-8.183-4.126C71.463,1.664,68.213.149,64.3.149c-6.365,0-15.83-.761-21.754,1.128C36.872,3.085,31.7,6.348,26.314,8.89A155.5,155.5,0,0,0,5.972,12.561a5.092,5.092,0,0,0-3.725,2.787,33.437,33.437,0,0,0-1.377,3.48c-.522.041-.543-.1-.706.211a3.413,3.413,0,0,0-.115,1.278,12.554,12.554,0,0,0,.231,3.834,3.151,3.151,0,0,0,1.059,1.9,2.44,2.44,0,0,0,1.391.53l2.416.082c1.445-.272,1.174-.455,1.086-2.291-.02-.272-.02-.557-.02-.836a9.235,9.235,0,1,1,18.469,0c0,.517-.014,1.026-.047,1.523-.217,3.1-.5,2.569,2.3,2.705l38.744-.041c2.063-.285,1.947-.027,1.73-2.617-.041-.51-.054-1.04-.054-1.57a9.235,9.235,0,1,1,18.47,0c0,.435-.014.877-.047,1.305-.163,2.121.427,1.951,1.812,1.842ZM36.275,11.317a7.407,7.407,0,0,0,.332-1.611c.068-1.237-2.178-1.326-3.576-1.237A41.765,41.765,0,0,1,43.359,3.051a32.421,32.421,0,0,1,7.084-1.02L53.5,1.964c.556,0,.631.258.475.693-.55,1.461-.767,4.622-1.1,6.75-.156,1.02-.4,1.271-1.445,1.278-4.132.034-15.2.829-15.152.625Zm-20.831,5.1a7.117,7.117,0,1,1-7.1,7.117,7.111,7.111,0,0,1,7.1-7.117Z" transform="translate(-0.003 0.003)" fill="#2f343e" fill-rule="evenodd"/></svg>