<svg xmlns="http://www.w3.org/2000/svg" width="95" height="36.856" viewBox="0 0 95 36.856"><path d="M92.531,30.088l.212-.051c1.242-.219,1.8-.073,2-1.681.241-1.929.153-4.955.256-6.146.073-.819-.051-1.593-.935-1.776-.49-.1-1-.2-1.009-.417a30.825,30.825,0,0,0-1.257-7.359A59.17,59.17,0,0,0,87.554,2.084C86.428-.094,86.845.023,84,.023c-10.224,0-21-.088-31.381.11-6.943.139-13.717.183-16.6,1.1C32.268,3.3,28.76,8.391,26.129,10.481,19.377,11.2,11.952,11.708,5.111,13.4,2.7,14,1.9,14.091,1.443,16.59c-.27,1.476-.314,3.1-.5,3.968-.19.015-.314.007-.4.007-.365-.007-.438.4-.453.819a48.62,48.62,0,0,0,.073,6.65,2.153,2.153,0,0,0,2.485,2.046H5.133c1.944,0,1.593-.175,1.732-2.032a10.114,10.114,0,0,1,20.17-.022c.146,2.024-.263,2.061,1.805,2.061H68.67c2.361,0,1.9-.139,2.156-2.441a10.114,10.114,0,0,1,20.126.278c.1,1.162-.219,2.163.965,2.163h.621ZM16.943,20.727a8.068,8.068,0,1,1-7.825,8.064,8.068,8.068,0,0,1,7.825-8.064Zm63.924,0a8.068,8.068,0,1,1-7.825,8.064,8.068,8.068,0,0,1,7.825-8.064ZM34.1,11.84a5.01,5.01,0,0,0,.431-1.535c.073-1.286-2.266-1.381-3.705-1.286a28.605,28.605,0,0,1,5.825-5.927c1.315-.438,8.938-.687,11.4-.731l3.179-.073c.57,0,.643.263.475.709q-.595,3.492-1.125,6.994c-.168,1.06-.417,1.674-1.505,1.659-4.283.227-15.025.555-14.974.19Zm35.883-1.7a39.56,39.56,0,0,0-1.754-6.614c-.219-.709-.475-1.418-1.279-1.389-4.093.11-7.754.044-11.766.153a.975.975,0,0,0-.8.365c-.446,1.184-.555,2.777-1.147,7.608-.161,1.323-.073,1.505,1.389,1.484,3.216,0,9.31.029,13.725-.1,1.315-.037,1.8.1,1.637-1.513Zm5.613.146C74.9,8.8,73.807,6.22,72.784,3.9c-.592-1.345-.614-1.769.935-1.8,3.069-.044,8.923.022,11.167.066a1.551,1.551,0,0,1,.884.49,48.452,48.452,0,0,1,2.967,7.2c.475,1.323.241,1.805-.694,1.79-2.112-.044-7.388,0-10.516,0a2.037,2.037,0,0,1-1.937-1.359Z" transform="translate(-0.011 -0.003)" fill="#2f343e" fill-rule="evenodd"/></svg>