<svg xmlns="http://www.w3.org/2000/svg" width="95" height="29.823" viewBox="0 0 95 29.823"><path d="M87.549,25.794c1.444-.123,3.079-.233,4.373-.431a4.615,4.615,0,0,0,2.149-.7c1.054-.979.931-4.031.917-5.591-.007-.383-.972-.383-.992-.78-.137-2.409-.308-4.489-.575-6.966a2.907,2.907,0,0,0-2.3-2.279C87.234,7.831,77.934,6.7,73.534,6.517l-1.4-.055L70.77,6.168c-.91.137-.828-.027-1.026.931-.178.842-.616,1.875-1.711,1.93-3.818.178-7.63.219-11.284.342-.383.014-.869-.212-.862-.657l.034-1.663a.342.342,0,0,0-.328-.356l-1.266-.116a.391.391,0,0,0-.376.363l-.267,1.451c-.178.979-.342,1.259-1.328,1.3l-15.807.671c-.185.014.294-.883.342-1.615.068-1.245-3.435-1.464-4.845-1.369A67.9,67.9,0,0,1,42.419,1.44c.452-.226.725-.233.431-.7l-.3-.458c-.219-.342-.493-.315-.849-.151A166.684,166.684,0,0,0,26.509,7.941,157.059,157.059,0,0,0,5.987,11.622a5.134,5.134,0,0,0-3.75,2.806,33.624,33.624,0,0,0-1.389,3.5c-.534.048-.547.205-.719.513a6.754,6.754,0,0,0-.123,1.868c.021.664.068,1.656.123,2.3.116,1.341.342,2.094,1.026,2.6a2.953,2.953,0,0,0,1.567.493l2.08.068c1.369-.192,1.615-.055,1.471-1.841-.034-.411-.048-.821-.048-1.252a9.313,9.313,0,0,1,18.627,0,15.08,15.08,0,0,1-.137,2.108c-.37,2.477,0,2.053,1.93,2.053H65.939c1.286-.26,1.745-.253,1.533-2.053a17.607,17.607,0,0,1-.1-2.108,9.313,9.313,0,0,1,18.627,0l.014,1.026c.014,1.779.1,2.217,1.54,2.1ZM76.682,15.5a7.165,7.165,0,1,1-7.165,7.165A7.165,7.165,0,0,1,76.682,15.5Zm-61.142,0a7.165,7.165,0,1,1-7.165,7.165A7.165,7.165,0,0,1,15.54,15.5Z" transform="translate(0.002 -0.008)" fill="#2f343e" fill-rule="evenodd"/></svg>