<svg xmlns="http://www.w3.org/2000/svg" width="95" height="39.102" viewBox="0 0 95 39.102"><path d="M86.622,35.283c1.6-.142,3.805-.3,5.428-.608a4.422,4.422,0,0,0,2.055-.757c1-1.041.885-4.292.872-5.962-.007-.406-.96-.406-.946-.831C94,18.46,93.895,12.633,93.422,1.886A2.075,2.075,0,0,0,91.36.075C90.191-.034,89.048.007,86.385.014L32.764.284C28.993.291,26.377.392,23.18,2.67,19.922,5,17.529,9.9,16.117,12.66c-3.109,1.088-7.847,2.5-12.194,4.056-1.081.392-2.041.615-2.231,1.926a36.561,36.561,0,0,0-.149,4.143A18.274,18.274,0,0,1,1.456,26.4c-.155.433-1.088.1-1.311.561A4.3,4.3,0,0,0,.03,28.335a14.828,14.828,0,0,0,.23,4.123,3.435,3.435,0,0,0,1.014,2.035,2.207,2.207,0,0,0,1.338.568l2.771.1c1.223-.1.818-.3.635-1.825a8.882,8.882,0,1,1,17.391,1.25c-.426,1.582-.473,1.751,1.325,1.744l42.9-.047c.7,0,1.081-.014,1.217-.21s.047-.7-.176-1.555A8.882,8.882,0,1,1,85.892,34.4c-.155.622.074.926.723.872Zm-64.49-20.7a9.769,9.769,0,0,0,.318-1.724c.068-1.325-2.014-.595-3.353-.5a31.067,31.067,0,0,1,4.61-7.381c1.859-1.947,3.92-2.3,6.59-2.3l4.333-.02c.534,0,.73.257.662.744-.237,1.642-.48,6.016-.973,8.294-.237,1.081-.9,1.352-1.893,1.534-3.968.744-10.342,1.575-10.294,1.359ZM14.839,25.449a6.827,6.827,0,1,1-6.827,6.827,6.827,6.827,0,0,1,6.827-6.827Zm62.394,0a6.827,6.827,0,1,1-6.827,6.827,6.827,6.827,0,0,1,6.827-6.827Z" transform="translate(0.013 -0.001)" fill="#2f343e" fill-rule="evenodd"/></svg>