<svg xmlns="http://www.w3.org/2000/svg" width="95" height="35.049" viewBox="0 0 95 35.049"><path d="M94.508,27.291a27.066,27.066,0,0,0,.5-6.369c0-.783-.161-1.3-.93-1.464-.476-.088-.952-.19-.959-.388-.146-2.416-.307-4.187-.571-6.662-.161-1.537-2.84-2.884-4.458-4.341-1.427-1.3-4.392-3.492-5.651-4.524-1.054-.864.52-1.83-.461-2.247C80.409.586,77.466.293,74.3.2,66.537-.051,56-.146,48.4.418a33.788,33.788,0,0,0-7.459,1.215c-5.71,1.815-10.615,6.3-16.032,8.858-6.574.7-13.177,1.3-19.831,2.95A4.141,4.141,0,0,0,1.8,16.1c-.717,1.391-.439,2.7-.769,3.492-.527.044-.542-.088-.71.22A3.663,3.663,0,0,0,.207,21.09c-.176,2.423-.717,6.039,1.3,7.547.1.073.2.1.315.168H4.877c1.523,0,1.42-.293,1.589-1.9a9.305,9.305,0,0,1,9.253-8.338,9.458,9.458,0,0,1,9.2,7.935c.307,1.976-.168,2.343,1.867,2.343h39.83c1.42,0,1.332-.146,1.42-1.567A9.307,9.307,0,0,1,86.6,27.137c.161,1.706-.022,1.713,1.574,1.713h3.865c1.208,0,2.05-.271,2.452-1.559ZM77.334,20.732a7.159,7.159,0,1,1-7.159,7.159,7.159,7.159,0,0,1,7.159-7.159Zm-61.615,0A7.159,7.159,0,1,1,8.56,27.891a7.159,7.159,0,0,1,7.159-7.159Zm19.216-8.689a7.118,7.118,0,0,0,.337-1.618c.073-1.244-2.2-1.332-3.6-1.244A40.742,40.742,0,0,1,41.765,3.419a38.659,38.659,0,0,1,7.452-.71l3.075-.073c.564,0,.637.256.476.7-.549,1.471-.769,4.656-1.1,6.793-.161,1.025-.41,1.274-1.464,1.281C46.047,11.442,34.884,12.24,34.935,12.042Zm33.308-1.266a24.228,24.228,0,0,0-1.179-6.727c-3.9-1.706-6.823-1.362-10.929-1.406A.908.908,0,0,0,55.373,3c-.439,1.142-.542,2.694-1.12,7.394-.154,1.274-.073.93,1.354.915,3.514-.044,8.66-.315,12.642-.534Zm.659-6.3a31.7,31.7,0,0,1,1.3,6.237c1.405-.073.988-.139,2.247-.176,1.823-.066,1.764-.791.608-2.372A12.436,12.436,0,0,0,68.9,4.48Zm9.114-.856,2.386.154c2.343,1.933,4.7,3.638,7.049,5.5,1.244.988.037.893-.952.71-3.682-.673-6.222-3.536-8.484-6.369Z" transform="translate(-0.008 -0.001)" fill="#2f343e" fill-rule="evenodd"/></svg>